<svg width="533" height="40" viewBox="0 0 533 40" fill="none" xmlns="http://www.w3.org/2000/svg">
<path d="M16.2047 6.42419V8.35263C18.1121 8.35263 19.899 8.83474 21.5654 9.79896C23.1516 10.7431 24.4165 12.0086 25.3601 13.5956C26.3238 15.2629 26.8057 17.0507 26.8057 18.959H28.7332C28.7332 16.6891 28.1609 14.5799 27.0165 12.6314C25.9122 10.7431 24.4165 9.24654 22.5292 8.14171C20.5816 6.9967 18.4735 6.42419 16.2047 6.42419ZM6.23611 9.31685C5.69401 9.31685 5.22219 9.4876 4.82064 9.82909L1.71863 12.9929L1.80898 12.9327C1.30704 13.3545 0.97576 13.8768 0.815138 14.4995C0.674594 15.1222 0.71475 15.7249 0.935604 16.3074C1.49778 17.8743 2.25069 19.4813 3.19434 21.1285C4.51947 23.3985 6.09557 25.4374 7.92264 27.2453C10.854 30.1982 14.4981 32.5284 18.8549 34.2359H18.8851C19.4673 34.4368 20.0496 34.4769 20.6318 34.3564C21.2341 34.2359 21.7662 33.9747 22.228 33.573L25.2698 30.5297C25.6713 30.1279 25.8721 29.6357 25.8721 29.0532C25.8721 28.4506 25.6713 27.9484 25.2698 27.5466L21.3245 23.5692C20.9229 23.1674 20.421 22.9666 19.8187 22.9666C19.2163 22.9666 18.7144 23.1674 18.3128 23.5692L16.4155 25.4976C14.8896 24.7745 13.5645 23.8806 12.4401 22.8159C11.3158 21.7312 10.4223 20.4154 9.75975 18.8686L11.6872 16.9402C12.1088 16.4983 12.3196 15.976 12.3196 15.3733C12.3196 14.7506 12.0787 14.2484 11.5969 13.8668L11.6872 13.9572L7.65159 9.82909C7.25003 9.4876 6.77821 9.31685 6.23611 9.31685ZM16.2047 10.2811V12.2095C17.4294 12.2095 18.5538 12.5108 19.5777 13.1135C20.6218 13.7161 21.445 14.5397 22.0473 15.5843C22.6496 16.6088 22.9508 17.7337 22.9508 18.959H24.8782C24.8782 17.3922 24.4867 15.9358 23.7037 14.5899C22.9207 13.2842 21.8766 12.2396 20.5716 11.4562C19.2264 10.6728 17.7707 10.2811 16.2047 10.2811ZM6.23611 11.2453C6.29635 11.2453 6.36662 11.2754 6.44693 11.3357L10.3922 15.3733C10.4123 15.4537 10.3922 15.524 10.332 15.5843L7.47089 18.4167L7.6817 19.0193L8.07322 19.863C8.39446 20.546 8.7659 21.2089 9.18753 21.8517C9.76978 22.7556 10.4123 23.529 11.115 24.1718C12.0586 25.0959 13.193 25.9396 14.5182 26.7029C15.1807 27.0846 15.7429 27.3658 16.2047 27.5466L16.807 27.8178L19.7283 24.895C19.7685 24.8548 19.7986 24.8347 19.8187 24.8347C19.8387 24.8347 19.8689 24.8548 19.909 24.895L23.9747 28.9628C24.0149 29.003 24.035 29.0331 24.035 29.0532C24.035 29.0532 24.0149 29.0733 23.9747 29.1135L20.9631 32.0965C20.5214 32.4782 20.0395 32.5786 19.5175 32.3978C15.4217 30.8109 12.0084 28.6414 9.27788 25.8894C7.59136 24.202 6.11565 22.2836 4.85075 20.1342C3.94726 18.5874 3.24454 17.0909 2.7426 15.6445V15.6144C2.66228 15.4336 2.65225 15.2227 2.71248 14.9816C2.77271 14.7205 2.88314 14.5196 3.04376 14.379L6.0253 11.3357C6.08553 11.2754 6.1558 11.2453 6.23611 11.2453ZM16.2047 14.1379V16.0664C17.0078 16.0664 17.6904 16.3476 18.2526 16.9101C18.8148 17.4725 19.0959 18.1555 19.0959 18.959H21.0233C21.0233 18.0953 20.8025 17.2917 20.3608 16.5485C19.9391 15.8052 19.3569 15.2227 18.614 14.8008C17.8711 14.3589 17.068 14.1379 16.2047 14.1379Z" fill="black"/>
<path d="M45.222 15V5.9H48.966C49.772 5.9 50.461 6.03 51.033 6.29C51.6137 6.55 52.06 6.92267 52.372 7.408C52.684 7.89333 52.84 8.46967 52.84 9.137C52.84 9.80433 52.684 10.3807 52.372 10.866C52.06 11.3513 51.6137 11.724 51.033 11.984C50.461 12.244 49.772 12.374 48.966 12.374H46.158L46.912 11.581V15H45.222ZM46.912 11.763L46.158 10.944H48.888C49.6333 10.944 50.1923 10.788 50.565 10.476C50.9463 10.1553 51.137 9.709 51.137 9.137C51.137 8.55633 50.9463 8.11 50.565 7.798C50.1923 7.486 49.6333 7.33 48.888 7.33H46.158L46.912 6.498V11.763ZM61.1837 5.9H62.8737V15H61.1837V5.9ZM56.4777 15H54.7877V5.9H56.4777V15ZM61.3137 11.1H56.3347V9.657H61.3137V11.1ZM69.8361 15.13C69.1254 15.13 68.4711 15.013 67.8731 14.779C67.2751 14.545 66.7551 14.22 66.3131 13.804C65.8711 13.3793 65.5287 12.8853 65.2861 12.322C65.0434 11.75 64.9221 11.126 64.9221 10.45C64.9221 9.774 65.0434 9.15433 65.2861 8.591C65.5287 8.019 65.8711 7.525 66.3131 7.109C66.7551 6.68433 67.2751 6.355 67.8731 6.121C68.4711 5.887 69.1211 5.77 69.8231 5.77C70.5337 5.77 71.1837 5.887 71.7731 6.121C72.3711 6.355 72.8911 6.68433 73.3331 7.109C73.7751 7.525 74.1174 8.019 74.3601 8.591C74.6027 9.15433 74.7241 9.774 74.7241 10.45C74.7241 11.126 74.6027 11.75 74.3601 12.322C74.1174 12.894 73.7751 13.388 73.3331 13.804C72.8911 14.22 72.3711 14.545 71.7731 14.779C71.1837 15.013 70.5381 15.13 69.8361 15.13ZM69.8231 13.648C70.2824 13.648 70.7071 13.57 71.0971 13.414C71.4871 13.258 71.8251 13.037 72.1111 12.751C72.3971 12.4563 72.6181 12.1183 72.7741 11.737C72.9387 11.347 73.0211 10.918 73.0211 10.45C73.0211 9.982 72.9387 9.55733 72.7741 9.176C72.6181 8.786 72.3971 8.448 72.1111 8.162C71.8251 7.86733 71.4871 7.642 71.0971 7.486C70.7071 7.33 70.2824 7.252 69.8231 7.252C69.3637 7.252 68.9391 7.33 68.5491 7.486C68.1677 7.642 67.8297 7.86733 67.5351 8.162C67.2491 8.448 67.0237 8.786 66.8591 9.176C66.7031 9.55733 66.6251 9.982 66.6251 10.45C66.6251 10.9093 66.7031 11.334 66.8591 11.724C67.0237 12.114 67.2491 12.4563 67.5351 12.751C67.8211 13.037 68.1591 13.258 68.5491 13.414C68.9391 13.57 69.3637 13.648 69.8231 13.648ZM76.7754 15V5.9H78.1664L83.8734 12.907H83.1844V5.9H84.8614V15H83.4704L77.7634 7.993H78.4524V15H76.7754ZM89.1199 9.683H93.6439V11.074H89.1199V9.683ZM89.2499 13.583H94.3849V15H87.5599V5.9H94.2029V7.317H89.2499V13.583Z" fill="black"/>
<path d="M48.303 35.078C47.601 35.078 46.977 34.896 46.431 34.532C45.885 34.1593 45.456 33.6307 45.144 32.946C44.832 32.2527 44.676 31.4207 44.676 30.45C44.676 29.4793 44.832 28.6517 45.144 27.967C45.456 27.2737 45.885 26.745 46.431 26.381C46.977 26.0083 47.601 25.822 48.303 25.822C49.005 25.822 49.629 26.0083 50.175 26.381C50.721 26.745 51.15 27.2737 51.462 27.967C51.7827 28.6517 51.943 29.4793 51.943 30.45C51.943 31.4207 51.7827 32.2527 51.462 32.946C51.15 33.6307 50.721 34.1593 50.175 34.532C49.629 34.896 49.005 35.078 48.303 35.078ZM48.303 34.22C48.8403 34.22 49.3083 34.077 49.707 33.791C50.1057 33.4963 50.4177 33.0717 50.643 32.517C50.8683 31.9537 50.981 31.2647 50.981 30.45C50.981 29.6353 50.8683 28.9507 50.643 28.396C50.4177 27.8327 50.1057 27.408 49.707 27.122C49.3083 26.8273 48.8403 26.68 48.303 26.68C47.783 26.68 47.3193 26.8273 46.912 27.122C46.5047 27.408 46.1883 27.8327 45.963 28.396C45.7377 28.9507 45.625 29.6353 45.625 30.45C45.625 31.2647 45.7377 31.9537 45.963 32.517C46.1883 33.0717 46.5047 33.4963 46.912 33.791C47.3193 34.077 47.783 34.22 48.303 34.22ZM56.1335 35.078C55.4748 35.078 54.8508 34.974 54.2615 34.766C53.6808 34.5493 53.2128 34.2633 52.8575 33.908L53.3125 33.167C53.6071 33.4703 54.0015 33.7217 54.4955 33.921C54.9981 34.1203 55.5441 34.22 56.1335 34.22C56.8875 34.22 57.4638 34.0553 57.8625 33.726C58.2698 33.3967 58.4735 32.9547 58.4735 32.4C58.4735 31.8453 58.2741 31.4033 57.8755 31.074C57.4855 30.7447 56.8658 30.58 56.0165 30.58H55.3665V29.891L58.1745 26.368L58.3045 26.732H53.2345V25.9H59.0845V26.563L56.2765 30.086L55.8215 29.787H56.1725C57.2645 29.787 58.0791 30.0297 58.6165 30.515C59.1625 31.0003 59.4355 31.6243 59.4355 32.387C59.4355 32.8983 59.3141 33.3577 59.0715 33.765C58.8288 34.1723 58.4605 34.493 57.9665 34.727C57.4811 34.961 56.8701 35.078 56.1335 35.078ZM67.5497 35.078C66.8997 35.078 66.28 34.974 65.6907 34.766C65.1014 34.5493 64.6334 34.2633 64.2867 33.908L64.7417 33.167C65.0277 33.4703 65.4177 33.7217 65.9117 33.921C66.4144 34.1203 66.956 34.22 67.5367 34.22C68.308 34.22 68.893 34.051 69.2917 33.713C69.699 33.3663 69.9027 32.9157 69.9027 32.361C69.9027 31.971 69.8074 31.6373 69.6167 31.36C69.4347 31.074 69.1227 30.853 68.6807 30.697C68.2387 30.541 67.632 30.463 66.8607 30.463H64.9237L65.3917 25.9H70.3707V26.732H65.7687L66.2497 26.277L65.8467 30.099L65.3657 29.631H67.0687C67.9874 29.631 68.724 29.7437 69.2787 29.969C69.8334 30.1943 70.232 30.5107 70.4747 30.918C70.726 31.3167 70.8517 31.7847 70.8517 32.322C70.8517 32.8333 70.7304 33.3013 70.4877 33.726C70.245 34.142 69.881 34.4713 69.3957 34.714C68.9104 34.9567 68.295 35.078 67.5497 35.078ZM72.144 32.608V31.932L76.967 25.9H78.007L73.223 31.932L72.716 31.776H80.035V32.608H72.144ZM77.279 35V32.608L77.305 31.776V29.67H78.215V35H77.279ZM83.6813 35.078C83.0226 35.078 82.3986 34.974 81.8093 34.766C81.2286 34.5493 80.7606 34.2633 80.4053 33.908L80.8603 33.167C81.1549 33.4703 81.5493 33.7217 82.0433 33.921C82.5459 34.1203 83.0919 34.22 83.6813 34.22C84.4353 34.22 85.0116 34.0553 85.4103 33.726C85.8176 33.3967 86.0213 32.9547 86.0213 32.4C86.0213 31.8453 85.8219 31.4033 85.4233 31.074C85.0333 30.7447 84.4136 30.58 83.5643 30.58H82.9143V29.891L85.7223 26.368L85.8523 26.732H80.7823V25.9H86.6323V26.563L83.8243 30.086L83.3693 29.787H83.7203C84.8123 29.787 85.6269 30.0297 86.1643 30.515C86.7103 31.0003 86.9833 31.6243 86.9833 32.387C86.9833 32.8983 86.8619 33.3577 86.6193 33.765C86.3766 34.1723 86.0083 34.493 85.5143 34.727C85.0289 34.961 84.4179 35.078 83.6813 35.078ZM88.3297 35V34.337L92.1127 30.632C92.4594 30.294 92.7194 29.9993 92.8927 29.748C93.066 29.488 93.183 29.2453 93.2437 29.02C93.3044 28.7947 93.3347 28.5823 93.3347 28.383C93.3347 27.8543 93.1527 27.4383 92.7887 27.135C92.4334 26.8317 91.9047 26.68 91.2027 26.68C90.6654 26.68 90.1887 26.7623 89.7727 26.927C89.3654 27.0917 89.0144 27.3473 88.7197 27.694L88.0567 27.122C88.412 26.706 88.867 26.3853 89.4217 26.16C89.9764 25.9347 90.596 25.822 91.2807 25.822C91.896 25.822 92.429 25.9217 92.8797 26.121C93.3304 26.3117 93.677 26.5933 93.9197 26.966C94.171 27.3387 94.2967 27.7763 94.2967 28.279C94.2967 28.5737 94.2534 28.864 94.1667 29.15C94.0887 29.436 93.9414 29.7393 93.7247 30.06C93.5167 30.372 93.209 30.7273 92.8017 31.126L89.3307 34.532L89.0707 34.168H94.7127V35H88.3297ZM101.396 35V26.29L101.812 26.732H99.2507V25.9H102.332V35H101.396ZM104.598 35V34.337L108.381 30.632C108.728 30.294 108.988 29.9993 109.161 29.748C109.334 29.488 109.451 29.2453 109.512 29.02C109.573 28.7947 109.603 28.5823 109.603 28.383C109.603 27.8543 109.421 27.4383 109.057 27.135C108.702 26.8317 108.173 26.68 107.471 26.68C106.934 26.68 106.457 26.7623 106.041 26.927C105.634 27.0917 105.283 27.3473 104.988 27.694L104.325 27.122C104.68 26.706 105.135 26.3853 105.69 26.16C106.245 25.9347 106.864 25.822 107.549 25.822C108.164 25.822 108.697 25.9217 109.148 26.121C109.599 26.3117 109.945 26.5933 110.188 26.966C110.439 27.3387 110.565 27.7763 110.565 28.279C110.565 28.5737 110.522 28.864 110.435 29.15C110.357 29.436 110.21 29.7393 109.993 30.06C109.785 30.372 109.477 30.7273 109.07 31.126L105.599 34.532L105.339 34.168H110.981V35H104.598ZM115.133 35.078C114.474 35.078 113.85 34.974 113.261 34.766C112.68 34.5493 112.212 34.2633 111.857 33.908L112.312 33.167C112.606 33.4703 113.001 33.7217 113.495 33.921C113.997 34.1203 114.543 34.22 115.133 34.22C115.887 34.22 116.463 34.0553 116.862 33.726C117.269 33.3967 117.473 32.9547 117.473 32.4C117.473 31.8453 117.273 31.4033 116.875 31.074C116.485 30.7447 115.865 30.58 115.016 30.58H114.366V29.891L117.174 26.368L117.304 26.732H112.234V25.9H118.084V26.563L115.276 30.086L114.821 29.787H115.172C116.264 29.787 117.078 30.0297 117.616 30.515C118.162 31.0003 118.435 31.6243 118.435 32.387C118.435 32.8983 118.313 33.3577 118.071 33.765C117.828 34.1723 117.46 34.493 116.966 34.727C116.48 34.961 115.869 35.078 115.133 35.078ZM119.858 32.608V31.932L124.681 25.9H125.721L120.937 31.932L120.43 31.776H127.749V32.608H119.858ZM124.993 35V32.608L125.019 31.776V29.67H125.929V35H124.993Z" fill="#343755"/>
<path d="M188.062 7.64062V12.5625H186.094V10.5938H180.188V28.3125H182.156V29.2969C182.156 30.0967 182.443 30.7837 183.018 31.3579C183.612 31.9526 184.31 32.25 185.109 32.25C185.909 32.25 186.596 31.9526 187.17 31.3579C187.765 30.7837 188.062 30.0967 188.062 29.2969V28.3125H203.812V12.5625H199.875V7.64062H188.062ZM190.031 9.60938H197.906V14.5312H190.031V9.60938ZM182.156 12.5625H184.125V26.3438H182.156V12.5625ZM186.094 14.5312H188.062V16.5H199.875V14.5312H201.844V26.3438H186.094V14.5312ZM189.047 18.4688V20.4375H191.016V18.4688H189.047ZM192.984 18.4688V20.4375H194.953V18.4688H192.984ZM196.922 18.4688V20.4375H198.891V18.4688H196.922ZM189.047 22.4062V24.375H191.016V22.4062H189.047ZM192.984 22.4062V24.375H194.953V22.4062H192.984ZM196.922 22.4062V24.375H198.891V22.4062H196.922ZM184.125 28.3125H186.094V29.2969C186.094 29.5635 185.991 29.7993 185.786 30.0044C185.602 30.189 185.376 30.2812 185.109 30.2812C184.843 30.2812 184.607 30.189 184.402 30.0044C184.217 29.7993 184.125 29.5635 184.125 29.2969V28.3125Z" fill="black"/>
<path d="M223.769 10.086H228.306V11.516H223.769V10.086ZM223.912 15H222.222V5.9H228.865V7.317H223.912V15ZM229.079 15L233.174 5.9H234.838L238.946 15H237.178L233.655 6.797H234.331L230.821 15H229.079ZM230.964 12.894L231.419 11.568H236.333L236.788 12.894H230.964ZM238.801 15L242.636 9.722V10.996L238.983 5.9H240.894L243.611 9.67L242.831 9.683L245.522 5.9H247.355L243.728 10.905V9.683L247.589 15H245.639L242.779 10.996H243.546L240.725 15H238.801Z" fill="black"/>
<path d="M225.303 35.078C224.601 35.078 223.977 34.896 223.431 34.532C222.885 34.1593 222.456 33.6307 222.144 32.946C221.832 32.2527 221.676 31.4207 221.676 30.45C221.676 29.4793 221.832 28.6517 222.144 27.967C222.456 27.2737 222.885 26.745 223.431 26.381C223.977 26.0083 224.601 25.822 225.303 25.822C226.005 25.822 226.629 26.0083 227.175 26.381C227.721 26.745 228.15 27.2737 228.462 27.967C228.783 28.6517 228.943 29.4793 228.943 30.45C228.943 31.4207 228.783 32.2527 228.462 32.946C228.15 33.6307 227.721 34.1593 227.175 34.532C226.629 34.896 226.005 35.078 225.303 35.078ZM225.303 34.22C225.84 34.22 226.308 34.077 226.707 33.791C227.106 33.4963 227.418 33.0717 227.643 32.517C227.868 31.9537 227.981 31.2647 227.981 30.45C227.981 29.6353 227.868 28.9507 227.643 28.396C227.418 27.8327 227.106 27.408 226.707 27.122C226.308 26.8273 225.84 26.68 225.303 26.68C224.783 26.68 224.319 26.8273 223.912 27.122C223.505 27.408 223.188 27.8327 222.963 28.396C222.738 28.9507 222.625 29.6353 222.625 30.45C222.625 31.2647 222.738 31.9537 222.963 32.517C223.188 33.0717 223.505 33.4963 223.912 33.791C224.319 34.077 224.783 34.22 225.303 34.22ZM233.133 35.078C232.475 35.078 231.851 34.974 231.261 34.766C230.681 34.5493 230.213 34.2633 229.857 33.908L230.312 33.167C230.607 33.4703 231.001 33.7217 231.495 33.921C231.998 34.1203 232.544 34.22 233.133 34.22C233.887 34.22 234.464 34.0553 234.862 33.726C235.27 33.3967 235.473 32.9547 235.473 32.4C235.473 31.8453 235.274 31.4033 234.875 31.074C234.485 30.7447 233.866 30.58 233.016 30.58H232.366V29.891L235.174 26.368L235.304 26.732H230.234V25.9H236.084V26.563L233.276 30.086L232.821 29.787H233.172C234.264 29.787 235.079 30.0297 235.616 30.515C236.162 31.0003 236.435 31.6243 236.435 32.387C236.435 32.8983 236.314 33.3577 236.071 33.765C235.829 34.1723 235.46 34.493 234.966 34.727C234.481 34.961 233.87 35.078 233.133 35.078ZM244.55 35.078C243.9 35.078 243.28 34.974 242.691 34.766C242.101 34.5493 241.633 34.2633 241.287 33.908L241.742 33.167C242.028 33.4703 242.418 33.7217 242.912 33.921C243.414 34.1203 243.956 34.22 244.537 34.22C245.308 34.22 245.893 34.051 246.292 33.713C246.699 33.3663 246.903 32.9157 246.903 32.361C246.903 31.971 246.807 31.6373 246.617 31.36C246.435 31.074 246.123 30.853 245.681 30.697C245.239 30.541 244.632 30.463 243.861 30.463H241.924L242.392 25.9H247.371V26.732H242.769L243.25 26.277L242.847 30.099L242.366 29.631H244.069C244.987 29.631 245.724 29.7437 246.279 29.969C246.833 30.1943 247.232 30.5107 247.475 30.918C247.726 31.3167 247.852 31.7847 247.852 32.322C247.852 32.8333 247.73 33.3013 247.488 33.726C247.245 34.142 246.881 34.4713 246.396 34.714C245.91 34.9567 245.295 35.078 244.55 35.078ZM249.144 32.608V31.932L253.967 25.9H255.007L250.223 31.932L249.716 31.776H257.035V32.608H249.144ZM254.279 35V32.608L254.305 31.776V29.67H255.215V35H254.279ZM260.681 35.078C260.023 35.078 259.399 34.974 258.809 34.766C258.229 34.5493 257.761 34.2633 257.405 33.908L257.86 33.167C258.155 33.4703 258.549 33.7217 259.043 33.921C259.546 34.1203 260.092 34.22 260.681 34.22C261.435 34.22 262.012 34.0553 262.41 33.726C262.818 33.3967 263.021 32.9547 263.021 32.4C263.021 31.8453 262.822 31.4033 262.423 31.074C262.033 30.7447 261.414 30.58 260.564 30.58H259.914V29.891L262.722 26.368L262.852 26.732H257.782V25.9H263.632V26.563L260.824 30.086L260.369 29.787H260.72C261.812 29.787 262.627 30.0297 263.164 30.515C263.71 31.0003 263.983 31.6243 263.983 32.387C263.983 32.8983 263.862 33.3577 263.619 33.765C263.377 34.1723 263.008 34.493 262.514 34.727C262.029 34.961 261.418 35.078 260.681 35.078ZM265.33 35V34.337L269.113 30.632C269.459 30.294 269.719 29.9993 269.893 29.748C270.066 29.488 270.183 29.2453 270.244 29.02C270.304 28.7947 270.335 28.5823 270.335 28.383C270.335 27.8543 270.153 27.4383 269.789 27.135C269.433 26.8317 268.905 26.68 268.203 26.68C267.665 26.68 267.189 26.7623 266.773 26.927C266.365 27.0917 266.014 27.3473 265.72 27.694L265.057 27.122C265.412 26.706 265.867 26.3853 266.422 26.16C266.976 25.9347 267.596 25.822 268.281 25.822C268.896 25.822 269.429 25.9217 269.88 26.121C270.33 26.3117 270.677 26.5933 270.92 26.966C271.171 27.3387 271.297 27.7763 271.297 28.279C271.297 28.5737 271.253 28.864 271.167 29.15C271.089 29.436 270.941 29.7393 270.725 30.06C270.517 30.372 270.209 30.7273 269.802 31.126L266.331 34.532L266.071 34.168H271.713V35H265.33ZM278.396 35V26.29L278.812 26.732H276.251V25.9H279.332V35H278.396ZM281.598 35V34.337L285.381 30.632C285.728 30.294 285.988 29.9993 286.161 29.748C286.334 29.488 286.451 29.2453 286.512 29.02C286.573 28.7947 286.603 28.5823 286.603 28.383C286.603 27.8543 286.421 27.4383 286.057 27.135C285.702 26.8317 285.173 26.68 284.471 26.68C283.934 26.68 283.457 26.7623 283.041 26.927C282.634 27.0917 282.283 27.3473 281.988 27.694L281.325 27.122C281.68 26.706 282.135 26.3853 282.69 26.16C283.245 25.9347 283.864 25.822 284.549 25.822C285.164 25.822 285.697 25.9217 286.148 26.121C286.599 26.3117 286.945 26.5933 287.188 26.966C287.439 27.3387 287.565 27.7763 287.565 28.279C287.565 28.5737 287.522 28.864 287.435 29.15C287.357 29.436 287.21 29.7393 286.993 30.06C286.785 30.372 286.477 30.7273 286.07 31.126L282.599 34.532L282.339 34.168H287.981V35H281.598ZM292.133 35.078C291.474 35.078 290.85 34.974 290.261 34.766C289.68 34.5493 289.212 34.2633 288.857 33.908L289.312 33.167C289.606 33.4703 290.001 33.7217 290.495 33.921C290.997 34.1203 291.543 34.22 292.133 34.22C292.887 34.22 293.463 34.0553 293.862 33.726C294.269 33.3967 294.473 32.9547 294.473 32.4C294.473 31.8453 294.273 31.4033 293.875 31.074C293.485 30.7447 292.865 30.58 292.016 30.58H291.366V29.891L294.174 26.368L294.304 26.732H289.234V25.9H295.084V26.563L292.276 30.086L291.821 29.787H292.172C293.264 29.787 294.078 30.0297 294.616 30.515C295.162 31.0003 295.435 31.6243 295.435 32.387C295.435 32.8983 295.313 33.3577 295.071 33.765C294.828 34.1723 294.46 34.493 293.966 34.727C293.48 34.961 292.869 35.078 292.133 35.078ZM296.858 32.608V31.932L301.681 25.9H302.721L297.937 31.932L297.43 31.776H304.749V32.608H296.858ZM301.993 35V32.608L302.019 31.776V29.67H302.929V35H301.993Z" fill="#343755"/>
<path d="M362.955 8.625V10.5962L356.75 14.6357V31.375H381.568V14.6357L375.364 10.5962V8.625H362.955ZM365.023 10.6932H373.295V18.6428L369.159 21.3249L365.023 18.6428V10.6932ZM366.057 12.7614V14.8295H372.261V12.7614H366.057ZM362.955 13.0522V17.2855L359.691 15.185L362.955 13.0522ZM375.364 13.0522L378.627 15.185L375.364 17.2855V13.0522ZM366.057 15.8636V17.9318H372.261V15.8636H366.057ZM358.818 17.0916L369.159 23.7809L379.5 17.0916V29.3068H358.818V17.0916Z" fill="black"/>
<path d="M400.782 9.683H405.306V11.074H400.782V9.683ZM400.912 13.583H406.047V15H399.222V5.9H405.865V7.317H400.912V13.583ZM408.191 15V5.9H409.582L413.56 12.543H412.832L416.745 5.9H418.136L418.149 15H416.55L416.537 8.409H416.875L413.547 13.96H412.793L409.413 8.409H409.803V15H408.191ZM419.58 15L423.675 5.9H425.339L429.447 15H427.679L424.156 6.797H424.832L421.322 15H419.58ZM421.465 12.894L421.92 11.568H426.834L427.289 12.894H421.465ZM430.864 15V5.9H432.554V15H430.864ZM435.276 15V5.9H436.966V13.57H441.724V15H435.276Z" fill="black"/>
<path d="M399.287 35V28.175H400.21V35H399.287ZM399.755 26.667C399.564 26.667 399.404 26.602 399.274 26.472C399.144 26.342 399.079 26.186 399.079 26.004C399.079 25.822 399.144 25.6703 399.274 25.549C399.404 25.419 399.564 25.354 399.755 25.354C399.946 25.354 400.106 25.4147 400.236 25.536C400.366 25.6573 400.431 25.809 400.431 25.991C400.431 26.1817 400.366 26.342 400.236 26.472C400.115 26.602 399.954 26.667 399.755 26.667ZM406.522 28.11C407.077 28.11 407.562 28.2183 407.978 28.435C408.403 28.643 408.732 28.9637 408.966 29.397C409.209 29.8303 409.33 30.3763 409.33 31.035V35H408.407V31.126C408.407 30.4067 408.225 29.865 407.861 29.501C407.506 29.1283 407.003 28.942 406.353 28.942C405.868 28.942 405.443 29.0417 405.079 29.241C404.724 29.4317 404.447 29.7133 404.247 30.086C404.057 30.45 403.961 30.892 403.961 31.412V35H403.038V28.175H403.922V30.047L403.779 29.696C403.996 29.202 404.343 28.8163 404.819 28.539C405.296 28.253 405.864 28.11 406.522 28.11ZM412.239 35V27.317C412.239 26.7103 412.417 26.2207 412.772 25.848C413.128 25.4753 413.639 25.289 414.306 25.289C414.566 25.289 414.818 25.3237 415.06 25.393C415.303 25.4623 415.507 25.5707 415.671 25.718L415.359 26.407C415.229 26.2943 415.078 26.212 414.904 26.16C414.731 26.0993 414.545 26.069 414.345 26.069C413.955 26.069 413.656 26.1773 413.448 26.394C413.24 26.6107 413.136 26.9313 413.136 27.356V28.396L413.162 28.825V35H412.239ZM411.017 28.942V28.175H415.242V28.942H411.017ZM419.416 35.065C418.758 35.065 418.164 34.9177 417.635 34.623C417.115 34.3197 416.704 33.908 416.4 33.388C416.097 32.8593 415.945 32.257 415.945 31.581C415.945 30.8963 416.097 30.294 416.4 29.774C416.704 29.254 417.115 28.8467 417.635 28.552C418.155 28.2573 418.749 28.11 419.416 28.11C420.092 28.11 420.69 28.2573 421.21 28.552C421.739 28.8467 422.151 29.254 422.445 29.774C422.749 30.294 422.9 30.8963 422.9 31.581C422.9 32.257 422.749 32.8593 422.445 33.388C422.151 33.908 421.739 34.3197 421.21 34.623C420.682 34.9177 420.084 35.065 419.416 35.065ZM419.416 34.246C419.91 34.246 420.348 34.1377 420.729 33.921C421.111 33.6957 421.41 33.3837 421.626 32.985C421.852 32.5777 421.964 32.1097 421.964 31.581C421.964 31.0437 421.852 30.5757 421.626 30.177C421.41 29.7783 421.111 29.4707 420.729 29.254C420.348 29.0287 419.915 28.916 419.429 28.916C418.944 28.916 418.511 29.0287 418.129 29.254C417.748 29.4707 417.445 29.7783 417.219 30.177C416.994 30.5757 416.881 31.0437 416.881 31.581C416.881 32.1097 416.994 32.5777 417.219 32.985C417.445 33.3837 417.748 33.6957 418.129 33.921C418.511 34.1377 418.94 34.246 419.416 34.246ZM430.453 37.6C429.56 37.6 428.745 37.4527 428.009 37.158C427.272 36.872 426.635 36.4647 426.098 35.936C425.569 35.416 425.157 34.7963 424.863 34.077C424.577 33.349 424.434 32.556 424.434 31.698C424.434 30.8313 424.577 30.0427 424.863 29.332C425.157 28.6127 425.573 27.993 426.111 27.473C426.657 26.9443 427.302 26.537 428.048 26.251C428.793 25.965 429.612 25.822 430.505 25.822C431.389 25.822 432.195 25.9607 432.923 26.238C433.659 26.5153 434.296 26.9097 434.834 27.421C435.371 27.9237 435.783 28.526 436.069 29.228C436.363 29.93 436.511 30.7057 436.511 31.555C436.511 32.283 436.424 32.9113 436.251 33.44C436.086 33.96 435.843 34.363 435.523 34.649C435.202 34.9263 434.816 35.065 434.366 35.065C433.924 35.065 433.568 34.9307 433.3 34.662C433.031 34.3933 432.897 34.0163 432.897 33.531V32.504L433.001 31.672L432.871 30.372V28.409H433.716V33.336C433.716 33.7 433.794 33.9557 433.95 34.103C434.106 34.2503 434.296 34.324 434.522 34.324C434.79 34.324 435.024 34.2157 435.224 33.999C435.423 33.7823 435.575 33.4703 435.679 33.063C435.791 32.647 435.848 32.1487 435.848 31.568C435.848 30.8053 435.718 30.112 435.458 29.488C435.198 28.864 434.829 28.3267 434.353 27.876C433.876 27.4253 433.313 27.083 432.663 26.849C432.013 26.6063 431.293 26.485 430.505 26.485C429.716 26.485 428.992 26.6107 428.334 26.862C427.675 27.1133 427.107 27.473 426.631 27.941C426.163 28.4003 425.799 28.9507 425.539 29.592C425.279 30.2247 425.149 30.9267 425.149 31.698C425.149 32.4693 425.274 33.1757 425.526 33.817C425.786 34.4583 426.15 35.0087 426.618 35.468C427.086 35.936 427.645 36.2957 428.295 36.547C428.945 36.807 429.664 36.937 430.453 36.937C430.843 36.937 431.259 36.8893 431.701 36.794C432.151 36.6987 432.567 36.5557 432.949 36.365L433.17 37.002C432.78 37.2013 432.338 37.3487 431.844 37.444C431.35 37.548 430.886 37.6 430.453 37.6ZM430.297 35.065C429.681 35.065 429.131 34.922 428.646 34.636C428.16 34.3413 427.775 33.9427 427.489 33.44C427.211 32.9287 427.073 32.348 427.073 31.698C427.073 31.048 427.211 30.4717 427.489 29.969C427.775 29.4663 428.16 29.072 428.646 28.786C429.131 28.5 429.681 28.357 430.297 28.357C430.895 28.357 431.423 28.4913 431.883 28.76C432.351 29.0287 432.715 29.4143 432.975 29.917C433.243 30.411 433.378 31.0047 433.378 31.698C433.378 32.3913 433.243 32.9893 432.975 33.492C432.715 33.9947 432.355 34.3847 431.896 34.662C431.436 34.9307 430.903 35.065 430.297 35.065ZM430.414 34.311C430.882 34.311 431.302 34.2027 431.675 33.986C432.056 33.7693 432.351 33.466 432.559 33.076C432.775 32.6773 432.884 32.218 432.884 31.698C432.884 31.1693 432.775 30.7143 432.559 30.333C432.351 29.943 432.056 29.644 431.675 29.436C431.302 29.2193 430.882 29.111 430.414 29.111C429.928 29.111 429.499 29.2193 429.127 29.436C428.754 29.644 428.459 29.943 428.243 30.333C428.035 30.723 427.931 31.178 427.931 31.698C427.931 32.218 428.035 32.673 428.243 33.063C428.459 33.453 428.754 33.7607 429.127 33.986C429.499 34.2027 429.928 34.311 430.414 34.311ZM447.264 28.11C447.819 28.11 448.3 28.2183 448.707 28.435C449.123 28.643 449.444 28.9637 449.669 29.397C449.903 29.8303 450.02 30.3763 450.02 31.035V35H449.097V31.126C449.097 30.4067 448.924 29.865 448.577 29.501C448.239 29.1283 447.758 28.942 447.134 28.942C446.666 28.942 446.259 29.0417 445.912 29.241C445.574 29.4317 445.31 29.7133 445.119 30.086C444.937 30.45 444.846 30.892 444.846 31.412V35H443.923V31.126C443.923 30.4067 443.75 29.865 443.403 29.501C443.057 29.1283 442.571 28.942 441.947 28.942C441.488 28.942 441.085 29.0417 440.738 29.241C440.392 29.4317 440.123 29.7133 439.932 30.086C439.75 30.45 439.659 30.892 439.659 31.412V35H438.736V28.175H439.62V30.021L439.477 29.696C439.685 29.202 440.019 28.8163 440.478 28.539C440.946 28.253 441.497 28.11 442.129 28.11C442.797 28.11 443.364 28.279 443.832 28.617C444.3 28.9463 444.604 29.4447 444.742 30.112L444.378 29.969C444.578 29.4143 444.929 28.968 445.431 28.63C445.943 28.2833 446.554 28.11 447.264 28.11ZM457.061 35V33.492L457.022 33.245V30.723C457.022 30.1423 456.857 29.696 456.528 29.384C456.207 29.072 455.726 28.916 455.085 28.916C454.643 28.916 454.222 28.9897 453.824 29.137C453.425 29.2843 453.087 29.4793 452.81 29.722L452.394 29.033C452.74 28.7383 453.156 28.513 453.642 28.357C454.127 28.1923 454.638 28.11 455.176 28.11C456.06 28.11 456.74 28.331 457.217 28.773C457.702 29.2063 457.945 29.8693 457.945 30.762V35H457.061ZM454.708 35.065C454.196 35.065 453.75 34.9827 453.369 34.818C452.996 34.6447 452.71 34.4107 452.511 34.116C452.311 33.8127 452.212 33.466 452.212 33.076C452.212 32.7207 452.294 32.4 452.459 32.114C452.632 31.8193 452.909 31.5853 453.291 31.412C453.681 31.23 454.201 31.139 454.851 31.139H457.204V31.828H454.877C454.218 31.828 453.759 31.945 453.499 32.179C453.247 32.413 453.122 32.7033 453.122 33.05C453.122 33.44 453.273 33.752 453.577 33.986C453.88 34.22 454.305 34.337 454.851 34.337C455.371 34.337 455.817 34.22 456.19 33.986C456.571 33.7433 456.848 33.3967 457.022 32.946L457.23 33.583C457.056 34.0337 456.753 34.3933 456.32 34.662C455.895 34.9307 455.358 35.065 454.708 35.065ZM460.711 35V28.175H461.595V30.034L461.504 29.709C461.695 29.189 462.016 28.7947 462.466 28.526C462.917 28.2487 463.476 28.11 464.143 28.11V29.007C464.109 29.007 464.074 29.007 464.039 29.007C464.005 28.9983 463.97 28.994 463.935 28.994C463.216 28.994 462.653 29.215 462.245 29.657C461.838 30.0903 461.634 30.71 461.634 31.516V35H460.711ZM468.858 35.065C468.182 35.065 467.576 34.9177 467.038 34.623C466.51 34.3197 466.094 33.908 465.79 33.388C465.487 32.8593 465.335 32.257 465.335 31.581C465.335 30.8963 465.487 30.294 465.79 29.774C466.094 29.254 466.51 28.8467 467.038 28.552C467.576 28.2573 468.182 28.11 468.858 28.11C469.439 28.11 469.963 28.2227 470.431 28.448C470.899 28.6733 471.268 29.0113 471.536 29.462L470.847 29.93C470.613 29.5833 470.323 29.3277 469.976 29.163C469.63 28.9983 469.253 28.916 468.845 28.916C468.36 28.916 467.922 29.0287 467.532 29.254C467.142 29.4707 466.835 29.7783 466.609 30.177C466.384 30.5757 466.271 31.0437 466.271 31.581C466.271 32.1183 466.384 32.5863 466.609 32.985C466.835 33.3837 467.142 33.6957 467.532 33.921C467.922 34.1377 468.36 34.246 468.845 34.246C469.253 34.246 469.63 34.1637 469.976 33.999C470.323 33.8343 470.613 33.583 470.847 33.245L471.536 33.713C471.268 34.155 470.899 34.493 470.431 34.727C469.963 34.9523 469.439 35.065 468.858 35.065ZM476.329 35.065C475.653 35.065 475.046 34.9177 474.509 34.623C473.98 34.3197 473.564 33.908 473.261 33.388C472.958 32.8593 472.806 32.257 472.806 31.581C472.806 30.8963 472.958 30.294 473.261 29.774C473.564 29.254 473.98 28.8467 474.509 28.552C475.046 28.2573 475.653 28.11 476.329 28.11C476.91 28.11 477.434 28.2227 477.902 28.448C478.37 28.6733 478.738 29.0113 479.007 29.462L478.318 29.93C478.084 29.5833 477.794 29.3277 477.447 29.163C477.1 28.9983 476.723 28.916 476.316 28.916C475.831 28.916 475.393 29.0287 475.003 29.254C474.613 29.4707 474.305 29.7783 474.08 30.177C473.855 30.5757 473.742 31.0437 473.742 31.581C473.742 32.1183 473.855 32.5863 474.08 32.985C474.305 33.3837 474.613 33.6957 475.003 33.921C475.393 34.1377 475.831 34.246 476.316 34.246C476.723 34.246 477.1 34.1637 477.447 33.999C477.794 33.8343 478.084 33.583 478.318 33.245L479.007 33.713C478.738 34.155 478.37 34.493 477.902 34.727C477.434 34.9523 476.91 35.065 476.329 35.065ZM481.425 35.065C481.235 35.065 481.07 34.9957 480.931 34.857C480.801 34.7183 480.736 34.5493 480.736 34.35C480.736 34.142 480.801 33.973 480.931 33.843C481.07 33.713 481.235 33.648 481.425 33.648C481.616 33.648 481.776 33.713 481.906 33.843C482.045 33.973 482.114 34.142 482.114 34.35C482.114 34.5493 482.045 34.7183 481.906 34.857C481.776 34.9957 481.616 35.065 481.425 35.065ZM486.993 35.065C486.317 35.065 485.71 34.9177 485.173 34.623C484.644 34.3197 484.228 33.908 483.925 33.388C483.621 32.8593 483.47 32.257 483.47 31.581C483.47 30.8963 483.621 30.294 483.925 29.774C484.228 29.254 484.644 28.8467 485.173 28.552C485.71 28.2573 486.317 28.11 486.993 28.11C487.573 28.11 488.098 28.2227 488.566 28.448C489.034 28.6733 489.402 29.0113 489.671 29.462L488.982 29.93C488.748 29.5833 488.457 29.3277 488.111 29.163C487.764 28.9983 487.387 28.916 486.98 28.916C486.494 28.916 486.057 29.0287 485.667 29.254C485.277 29.4707 484.969 29.7783 484.744 30.177C484.518 30.5757 484.406 31.0437 484.406 31.581C484.406 32.1183 484.518 32.5863 484.744 32.985C484.969 33.3837 485.277 33.6957 485.667 33.921C486.057 34.1377 486.494 34.246 486.98 34.246C487.387 34.246 487.764 34.1637 488.111 33.999C488.457 33.8343 488.748 33.583 488.982 33.245L489.671 33.713C489.402 34.155 489.034 34.493 488.566 34.727C488.098 34.9523 487.573 35.065 486.993 35.065ZM494.412 35.065C493.753 35.065 493.159 34.9177 492.631 34.623C492.111 34.3197 491.699 33.908 491.396 33.388C491.092 32.8593 490.941 32.257 490.941 31.581C490.941 30.8963 491.092 30.294 491.396 29.774C491.699 29.254 492.111 28.8467 492.631 28.552C493.151 28.2573 493.744 28.11 494.412 28.11C495.088 28.11 495.686 28.2573 496.206 28.552C496.734 28.8467 497.146 29.254 497.441 29.774C497.744 30.294 497.896 30.8963 497.896 31.581C497.896 32.257 497.744 32.8593 497.441 33.388C497.146 33.908 496.734 34.3197 496.206 34.623C495.677 34.9177 495.079 35.065 494.412 35.065ZM494.412 34.246C494.906 34.246 495.343 34.1377 495.725 33.921C496.106 33.6957 496.405 33.3837 496.622 32.985C496.847 32.5777 496.96 32.1097 496.96 31.581C496.96 31.0437 496.847 30.5757 496.622 30.177C496.405 29.7783 496.106 29.4707 495.725 29.254C495.343 29.0287 494.91 28.916 494.425 28.916C493.939 28.916 493.506 29.0287 493.125 29.254C492.743 29.4707 492.44 29.7783 492.215 30.177C491.989 30.5757 491.877 31.0437 491.877 31.581C491.877 32.1097 491.989 32.5777 492.215 32.985C492.44 33.3837 492.743 33.6957 493.125 33.921C493.506 34.1377 493.935 34.246 494.412 34.246ZM508.568 28.11C509.123 28.11 509.604 28.2183 510.011 28.435C510.427 28.643 510.748 28.9637 510.973 29.397C511.207 29.8303 511.324 30.3763 511.324 31.035V35H510.401V31.126C510.401 30.4067 510.228 29.865 509.881 29.501C509.543 29.1283 509.062 28.942 508.438 28.942C507.97 28.942 507.563 29.0417 507.216 29.241C506.878 29.4317 506.614 29.7133 506.423 30.086C506.241 30.45 506.15 30.892 506.15 31.412V35H505.227V31.126C505.227 30.4067 505.054 29.865 504.707 29.501C504.36 29.1283 503.875 28.942 503.251 28.942C502.792 28.942 502.389 29.0417 502.042 29.241C501.695 29.4317 501.427 29.7133 501.236 30.086C501.054 30.45 500.963 30.892 500.963 31.412V35H500.04V28.175H500.924V30.021L500.781 29.696C500.989 29.202 501.323 28.8163 501.782 28.539C502.25 28.253 502.8 28.11 503.433 28.11C504.1 28.11 504.668 28.279 505.136 28.617C505.604 28.9463 505.907 29.4447 506.046 30.112L505.682 29.969C505.881 29.4143 506.232 28.968 506.735 28.63C507.246 28.2833 507.857 28.11 508.568 28.11ZM514.178 35.065C513.987 35.065 513.823 34.9957 513.684 34.857C513.554 34.7183 513.489 34.5493 513.489 34.35C513.489 34.142 513.554 33.973 513.684 33.843C513.823 33.713 513.987 33.648 514.178 33.648C514.369 33.648 514.529 33.713 514.659 33.843C514.798 33.973 514.867 34.142 514.867 34.35C514.867 34.5493 514.798 34.7183 514.659 34.857C514.529 34.9957 514.369 35.065 514.178 35.065ZM521.506 35V33.492L521.467 33.245V30.723C521.467 30.1423 521.302 29.696 520.973 29.384C520.652 29.072 520.171 28.916 519.53 28.916C519.088 28.916 518.668 28.9897 518.269 29.137C517.87 29.2843 517.532 29.4793 517.255 29.722L516.839 29.033C517.186 28.7383 517.602 28.513 518.087 28.357C518.572 28.1923 519.084 28.11 519.621 28.11C520.505 28.11 521.185 28.331 521.662 28.773C522.147 29.2063 522.39 29.8693 522.39 30.762V35H521.506ZM519.153 35.065C518.642 35.065 518.195 34.9827 517.814 34.818C517.441 34.6447 517.155 34.4107 516.956 34.116C516.757 33.8127 516.657 33.466 516.657 33.076C516.657 32.7207 516.739 32.4 516.904 32.114C517.077 31.8193 517.355 31.5853 517.736 31.412C518.126 31.23 518.646 31.139 519.296 31.139H521.649V31.828H519.322C518.663 31.828 518.204 31.945 517.944 32.179C517.693 32.413 517.567 32.7033 517.567 33.05C517.567 33.44 517.719 33.752 518.022 33.986C518.325 34.22 518.75 34.337 519.296 34.337C519.816 34.337 520.262 34.22 520.635 33.986C521.016 33.7433 521.294 33.3967 521.467 32.946L521.675 33.583C521.502 34.0337 521.198 34.3933 520.765 34.662C520.34 34.9307 519.803 35.065 519.153 35.065ZM527.978 35.065C527.397 35.065 526.89 34.9567 526.457 34.74C526.024 34.5233 525.686 34.1983 525.443 33.765C525.209 33.3317 525.092 32.79 525.092 32.14V28.175H526.015V32.036C526.015 32.764 526.193 33.3143 526.548 33.687C526.912 34.051 527.419 34.233 528.069 34.233C528.546 34.233 528.957 34.1377 529.304 33.947C529.659 33.7477 529.928 33.4617 530.11 33.089C530.301 32.7163 530.396 32.27 530.396 31.75V28.175H531.319V35H530.435V33.128L530.578 33.466C530.361 33.9687 530.023 34.363 529.564 34.649C529.113 34.9263 528.585 35.065 527.978 35.065Z" fill="#343755"/>
</svg>
