<svg xmlns="http://www.w3.org/2000/svg" xml:space="preserve" viewBox="0 0 503.2 213.4">
  <path fill="#fff" d="M0 0h213.4v213.4H0z"/>
  <path d="M292.9 92.7h-3.8c-.4 0-.8-.1-1-.3-.3-.2-.5-.5-.6-.8l-3.3-8.6h-16.1l-3.3 8.6c-.1.3-.3.6-.6.8-.3.2-.6.4-1 .4h-3.8L273.7 57h4.9l14.3 35.7zm-23.5-13.3h13.4l-5.6-14.6c-.4-.9-.7-2-1.1-3.4l-.5 1.9-.5 1.5-5.7 14.6zm27.3 13.3V67.4h2.6c.6 0 1 .3 1.2.9l.3 2.8c1.1-1.2 2.3-2.2 3.7-3s2.9-1.1 4.7-1.1c1.4 0 2.6.2 3.7.7a7.6 7.6 0 0 1 4.3 5c.4 1.1.5 2.5.5 3.9v16.1h-4.4V76.6c0-1.9-.4-3.4-1.3-4.5s-2.2-1.6-4-1.6a8 8 0 0 0-3.7.9c-1.1.6-2.2 1.5-3.2 2.6v18.6h-4.4zM338.3 57l.7.7 20.8 27-.1-1.3V56.9h4.2v35.8h-2.5l-1-.2c-.3-.1-.5-.4-.8-.7l-20.7-27 .1 1.2v26.6h-4.2V56.9h2.5l1 .1zm40.1 35.7h-4.8V56.9h4.8v35.8zm42.9-17.9c0 1.7-.2 3.3-.5 4.8s-.8 2.9-1.5 4.2-1.4 2.5-2.4 3.6-2 2-3.2 2.8l9.2 9.9h-4l-1.6-.2c-.5-.2-.9-.5-1.3-.9l-6.3-6.9-3 .7c-1 .2-2.1.2-3.2.2-2.6 0-5-.4-7.2-1.3s-4-2.1-5.6-3.8a19.5 19.5 0 0 1-4.9-13.2c0-2.7.4-5.1 1.3-7.4a16.8 16.8 0 0 1 9.2-9.6 18.9 18.9 0 0 1 20 3.8c1.6 1.6 2.8 3.6 3.6 5.8 1 2.4 1.4 4.8 1.4 7.5zm-5 0c0-2.2-.3-4.2-.9-5.9s-1.5-3.2-2.5-4.4a11.5 11.5 0 0 0-4-2.8c-1.6-.7-3.3-1-5.2-1a12.4 12.4 0 0 0-9.2 3.8c-1.1 1.2-2 2.7-2.6 4.4-.6 1.8-.9 3.7-.9 5.9s.3 4.2.9 5.9a11.5 11.5 0 0 0 6.6 7.2c1.6.6 3.3 1 5.2 1a12.4 12.4 0 0 0 9.2-3.8c1.1-1.2 2-2.7 2.5-4.4s.9-3.7.9-5.9zm-127.6 72.5c.3 0 .5.1.7.3l1.9 2.1c-1.5 1.7-3.2 3-5.3 4-2.1.9-4.6 1.4-7.6 1.4-2.6 0-4.9-.4-7-1.3-2.1-.9-3.9-2.1-5.4-3.8a18.7 18.7 0 0 1-4.7-13.2c0-2.7.4-5.2 1.3-7.4s2.1-4.2 3.7-5.8a17.3 17.3 0 0 1 13-5.1c2.6 0 4.9.4 6.8 1.2 1.9.8 3.6 1.9 5.1 3.3l-1.6 2.2-.4.4a1 1 0 0 1-.6.2l-.7-.2-.9-.6-1.2-.8-1.6-.8-2.2-.6c-.9-.2-1.8-.2-2.8-.2-1.9 0-3.7.3-5.3 1a12 12 0 0 0-6.8 7.3c-.7 1.8-1 3.7-1 5.9s.3 4.2 1 6 1.5 3.2 2.6 4.4a11.6 11.6 0 0 0 8.8 3.8l2.9-.2c.9-.1 1.6-.3 2.4-.6a12.4 12.4 0 0 0 3.9-2.5c.4-.3.7-.4 1-.4zm18.5-18.3c1.8 0 3.5.3 5 .9 1.5.6 2.8 1.5 3.8 2.6s1.8 2.5 2.4 4.1.8 3.4.8 5.4c0 2-.3 3.8-.8 5.4-.6 1.6-1.4 3-2.4 4.1-1 1.1-2.3 2-3.8 2.6-1.5.6-3.2.9-5 .9-1.9 0-3.5-.3-5-.9-1.5-.6-2.8-1.5-3.8-2.6s-1.9-2.5-2.4-4.1c-.6-1.6-.9-3.4-.9-5.4 0-2 .3-3.8.9-5.4.6-1.6 1.4-3 2.4-4.1 1-1.1 2.3-2 3.8-2.6 1.5-.6 3.2-.9 5-.9zm0 22.6c2.5 0 4.4-.8 5.6-2.5 1.2-1.7 1.8-4 1.8-7s-.6-5.4-1.8-7.1c-1.2-1.7-3.1-2.5-5.6-2.5-1.3 0-2.4.2-3.3.6a6 6 0 0 0-2.3 1.9c-.6.8-1.1 1.8-1.4 3a16.2 16.2 0 0 0 0 8 7.1 7.1 0 0 0 3.7 4.9c.9.5 2 .7 3.3.7zm17.6 3.1v-25.3h2.6c.6 0 1 .3 1.2.9l.3 2.6c.9-1.2 2-2.1 3.1-2.8a7.7 7.7 0 0 1 4-1.1c1.7 0 3.1.5 4.2 1.4s1.8 2.2 2.3 3.8c.3-.9.8-1.7 1.4-2.4a7 7 0 0 1 1.9-1.6c.7-.4 1.5-.8 2.3-1s1.6-.3 2.5-.3c1.3 0 2.5.2 3.6.6a6 6 0 0 1 2.6 1.9c.7.8 1.3 1.8 1.7 3 .4 1.2.6 2.6.6 4.1v16.1h-4.4v-16.1c0-2-.4-3.5-1.3-4.5s-2.1-1.5-3.8-1.5c-.7 0-1.4.1-2.1.4a5 5 0 0 0-2.9 3c-.3.8-.4 1.6-.4 2.6v16.1h-4.5v-16.1c0-2-.4-3.5-1.2-4.5-.8-1-2-1.5-3.6-1.5-1.1 0-2.1.3-3.1.9s-1.8 1.4-2.6 2.4v18.9h-4.4zm41 8.6v-33.9h2.6c.6 0 1 .3 1.2.9l.4 3a14 14 0 0 1 3.7-3.2c1.4-.8 3-1.2 4.8-1.2a8 8 0 0 1 6.9 3.3c.8 1.1 1.5 2.4 1.9 4.1a19 19 0 0 1-.1 10.8c-.6 1.6-1.2 3-2.1 4.2a9.7 9.7 0 0 1-8 3.8c-1.6 0-2.9-.3-4-.8s-2.1-1.2-2.9-2.2v11.2h-4.4zm11.3-30.8c-1.5 0-2.7.3-3.8 1-1.1.7-2.1 1.6-3 2.8v12.2a6.4 6.4 0 0 0 2.7 2.3c1 .4 2.1.7 3.3.7 2.4 0 4.2-.8 5.4-2.5 1.3-1.7 1.9-4.1 1.9-7.2a17 17 0 0 0-.4-4.2 7 7 0 0 0-1.3-2.9 4.7 4.7 0 0 0-2-1.7c-.9-.3-1.8-.5-2.8-.5zm34.9 22.2h-2l-1.1-.2c-.3-.1-.4-.4-.5-.8l-.5-2.3a28 28 0 0 1-4 2.8c-.7.3-1.4.6-2.2.7-.8.2-1.7.2-2.6.2-1 0-1.9-.1-2.8-.4s-1.6-.7-2.2-1.2a6.7 6.7 0 0 1-1.3-8c.5-.9 1.4-1.8 2.7-2.5 1.2-.7 2.8-1.3 4.8-1.8s4.4-.7 7.3-.7v-2c0-2-.4-3.5-1.3-4.5s-2.1-1.5-3.7-1.5a7 7 0 0 0-2.7.4l-1.9.9-1.4.9a1.9 1.9 0 0 1-2 .2l-.5-.6-.8-1.4a13.3 13.3 0 0 1 13.7-3.3 8 8 0 0 1 4.5 5c.4 1.2.6 2.5.6 3.9v16.2zm-11.5-2.7 2.1-.2 1.8-.7 1.7-1.1 1.5-1.4v-5.2a26.2 26.2 0 0 0-8.7 1.4c-.9.4-1.6.9-2 1.5s-.6 1.2-.6 1.9.1 1.2.3 1.7c.2.5.5.9.9 1.2l1.3.7c.5.2 1.1.2 1.7.2zm18.3 2.7v-25.3h2.6c.6 0 1 .3 1.2.9l.3 2.8c1.1-1.2 2.3-2.2 3.7-3s2.9-1.1 4.7-1.1c1.4 0 2.6.2 3.7.7a7.6 7.6 0 0 1 4.3 5c.4 1.1.5 2.5.5 3.9v16.1h-4.4v-16.1c0-1.9-.4-3.4-1.3-4.5s-2.2-1.6-4-1.6c-1.3 0-2.5.3-3.7 1s-2.2 1.5-3.2 2.6v18.6h-4.4zm34.4 7.5c-.2.3-.3.6-.6.8-.2.2-.6.3-1 .3h-3.3l4.6-10-10.5-23.9h3.9c.4 0 .7.1.9.3l.5.6 6.8 15.9.4 1.1.3 1.1.3-1.1.4-1.1 6.6-15.9.5-.7c.2-.2.5-.3.8-.3h3.5l-14.1 32.9z" class="st1"/>
  <path fill="#ea5b0c" d="M152.3 61.1 192.2 0H0v213.4h213.4V0l-61.1 61.1zM53.9 150c-20.9 0-37.6-13-37.6-42.3 0-30.5 19-44.2 43.8-44.2h2.5c6 0 8 .8 8 4.5 0 3-.8 4.9-3 4.9h-6.1c-21.2 0-33.7 12.6-33.7 34.7 0 21.1 10.1 33.5 26.3 33.5 8 0 9.8-1.6 9.8-5.6v-25.6c0-1.9 1.6-2.9 5.4-2.9 3.8 0 5.3 1 5.3 2.9v30.7c-.1 4.8-4.1 9.4-20.7 9.4zm52.8-37.4a6 6 0 0 1-.1-11.8 6 6 0 0 1 .1 11.8zm13.8-39.8h-2.8c-15.3 0-20.8 5.8-20.8 19.8v53.7c0 1.9-1.6 2.8-5.3 2.8-3.8 0-5.4-1-5.4-2.8V91.7c0-20.6 12.3-28.2 29.3-28.2 6 0 8 .8 8 4.4 0 3.1-.7 4.9-3 4.9zm24.5 73.5c0 1.9-1.6 2.8-5.3 2.8-3.8 0-5.4-1-5.4-2.8v-80c0-1.9 1.6-2.8 5.4-2.8 3.8 0 5.3.9 5.3 2.8v80zm17.1-40c0 .7.8 1.4 2.2 3l30.4 33.5c1.1 1.2 1.9 2.2 1.9 3.1 0 1.9-4.1 3.8-6.8 3.8-1.9 0-3.5-1.4-4.9-3L151.7 110c-1.6-1.7-1.9-2.7-1.9-3.6 0-.9.3-1.9 1.9-3.6L184.9 66c1.4-1.6 3-3 4.9-3 2.7 0 6.8 1.9 6.8 3.8 0 .9-.8 1.9-1.9 3.1l-30.4 33.5c-1.4 1.5-2.2 2.3-2.2 2.9z"/>
</svg>
