<svg width="121" height="57" viewBox="0 0 121 57" fill="none" xmlns="http://www.w3.org/2000/svg">
<path fill-rule="evenodd" clip-rule="evenodd" d="M110.968 21.6734C113.906 21.7544 114.586 21.8623 115.864 22.4561C116.68 22.834 117.768 23.5358 118.258 24.0486C118.775 24.5614 119.482 25.5331 119.836 26.2348C120.19 26.9636 120.625 28.3401 120.761 29.3387C120.924 30.3644 121.006 33.1174 120.897 39.8111L104.983 39.946V44.1296C104.983 47.7733 105.065 48.448 105.527 49.3927C105.826 49.9865 106.479 50.7422 106.969 51.0661C107.594 51.498 108.356 51.6869 109.743 51.7679C111.321 51.8489 111.838 51.7679 112.872 51.2281C113.579 50.8502 114.314 50.2294 114.613 49.6626C114.967 49.0688 115.211 47.9892 115.456 44.9393L118.122 44.8583C120.407 44.8043 120.788 44.8583 120.951 45.2632C121.06 45.5331 120.978 46.7746 120.788 48.0432C120.598 49.3117 120.162 50.8772 119.836 51.552C119.482 52.2267 118.612 53.2794 117.877 53.9271C117.143 54.5749 115.864 55.3306 115.048 55.6545C113.851 56.1134 112.899 56.2213 110.424 56.2483C108.002 56.2753 106.942 56.1673 105.663 55.7355C104.765 55.4386 103.432 54.7099 102.671 54.1161C101.746 53.3603 101.011 52.4157 99.4062 49.3117V39.2982C99.4062 32.2267 99.515 28.9609 99.7326 28.2051C99.9231 27.6113 100.467 26.5317 100.957 25.803C101.446 25.0742 102.426 24.0756 103.133 23.5897C103.868 23.0769 105.146 22.4292 105.989 22.1323C107.322 21.6734 108.084 21.5924 110.968 21.6734ZM106.887 26.9366C106.506 27.2065 105.935 27.9082 105.609 28.502C105.064 29.4197 104.983 29.9595 104.983 32.5776V35.6275H115.592C115.456 30.2294 115.32 29.3117 114.912 28.502C114.613 27.9082 113.933 27.1525 113.416 26.8286C112.845 26.4777 111.838 26.1538 110.968 26.0729C110.152 26.0189 109.036 26.0459 108.519 26.1808C108.002 26.3158 107.268 26.6667 106.887 26.9366ZM73.155 5.39811C73.2366 5.39811 73.5086 5.61404 73.7806 5.88394C73.563 5.66802 73.427 5.4251 73.427 5.31714C73.4542 5.20918 74.5967 3.96761 76.0113 2.5641C77.7795 0.782726 78.7588 0 79.1941 0C79.6021 0 80.4454 0.620783 81.6696 1.83536C82.6761 2.83401 83.4922 3.83266 83.4922 4.04858C83.4922 4.26451 82.2953 5.66802 78.106 9.85155L77.8339 9.58165C77.9699 9.7166 78.0516 9.82456 78.0516 9.85155C78.0516 9.93252 77.1266 10.9042 76.0113 12.0108C74.896 13.1174 73.9166 13.9271 73.835 13.7652C73.7534 13.6032 73.5086 13.4953 73.291 13.4953C73.1005 13.4953 72.3932 13.0094 71.5771 12.3347C71.7222 12.4606 71.8401 12.5686 71.9308 12.6586C72.3661 13.1174 72.9645 13.4953 73.2094 13.4953C73.4814 13.4953 73.7806 13.6572 73.8622 13.8462C73.971 14.0351 73.2094 14.9798 72.0396 16.1134C70.9243 17.193 69.7817 18.2186 69.4825 18.3806C69.1016 18.5965 68.7752 18.5965 68.3944 18.4076C68.0951 18.2456 67.0614 17.3549 64.3955 14.7099L63.6882 14.0351C63.2801 13.6572 62.8177 13.2794 62.6817 13.1714C62.5184 13.0634 62.9537 12.3887 63.6882 11.552C64.2322 10.9582 64.6675 10.3104 64.8851 9.87854C64.6403 10.3374 63.9874 11.2281 62.6 12.8205L61.4847 11.7409C60.8046 11.0931 60.3694 10.4184 60.3694 10.0675C60.3694 9.68961 61.0222 8.79892 62.056 7.7193C63.1985 6.5587 63.9874 5.96491 64.4499 5.96491C64.8307 5.93792 65.402 6.20783 65.7556 6.53171C66.2453 7.01754 66.3269 7.28745 66.1365 7.82726C66.0005 8.20513 65.7012 8.583 65.4564 8.71795C65.7012 8.583 66.0277 8.20513 66.1637 7.85425L66.4357 7.23347L67.7415 8.39406C68.4488 9.04184 69.02 9.77058 69.0472 9.98651C69.0744 10.1484 68.476 10.8502 66.5989 12.6586L69.1289 10.2834L70.1354 11.0661C70.1898 11.1201 70.2533 11.1741 70.3258 11.2281C69.6185 10.5533 69.0744 10.0135 69.0744 9.93252C69.0744 9.79757 69.9722 8.74494 71.0331 7.58435C72.1212 6.39676 73.0733 5.4251 73.155 5.39811ZM74.5695 6.47773C74.4879 6.47773 74.1887 6.2888 73.9438 6.04588C74.2159 6.2888 74.4879 6.47773 74.5695 6.47773ZM11.5393 21.6194C13.6612 21.5924 14.9397 21.7274 15.8919 22.0243C16.6264 22.2942 17.6057 22.726 18.0681 23.0229C18.5034 23.3198 19.2379 23.8866 19.6459 24.2645C20.0812 24.6424 20.7613 25.5601 21.8766 27.6653V56.0054H16.708L16.4359 52.9015L15.6742 53.8462C15.2662 54.359 14.2869 55.1147 13.498 55.4926C12.4642 56.0324 11.4849 56.2483 9.79831 56.3833C8.32933 56.4912 7.05077 56.4372 6.20747 56.1943C5.47298 56.0324 4.33044 55.4926 3.65035 55.0607C2.97027 54.6289 2.12696 53.8462 1.77332 53.3603C1.41968 52.9015 0.902812 52.0648 0.657981 51.552C0.304338 50.8772 0.141117 49.7166 0.032304 47.6383C-0.0493061 45.2362 0.00510065 44.3725 0.413151 43.0769C0.712388 42.1592 1.33807 40.9987 1.90934 40.3779C2.4262 39.7571 3.48713 38.9744 4.22162 38.6235C4.95611 38.2726 6.15306 37.8138 6.91476 37.6248C7.78526 37.3819 9.79831 37.247 16.572 37.247V33.6572C16.5447 31.2281 16.4087 29.7436 16.1367 29.0148C15.9191 28.4211 15.5382 27.6923 15.2662 27.4224C15.0214 27.1525 14.3141 26.6937 13.7156 26.4238C13.1171 26.1538 12.1106 25.9109 11.4577 25.9109C10.832 25.9109 9.85272 26.0999 9.28145 26.3428C8.73738 26.5587 7.97569 27.0175 7.64925 27.3414C7.2956 27.6653 6.83315 28.2591 6.61552 28.664C6.39789 29.1228 6.23467 30.2024 6.23467 31.363C6.26187 32.6316 6.12586 33.4413 5.90823 33.6572C5.6634 33.9001 4.79289 33.9811 0.930015 33.8731L0.848405 31.309C0.793998 29.5547 0.902812 28.3671 1.20205 27.5304C1.41968 26.8556 1.99095 25.83 2.48061 25.2632C2.97027 24.6694 3.92239 23.8327 4.60247 23.4008C5.28255 22.942 6.4251 22.3752 7.18679 22.1053C8.13891 21.7814 9.44467 21.6194 11.5393 21.6194ZM7.2412 42.726C6.83315 42.969 6.26188 43.6977 5.96264 44.3185C5.6634 44.9933 5.41857 46.0459 5.41857 46.8286C5.41857 47.5574 5.6362 48.664 5.90823 49.2578C6.18026 49.8516 6.83315 50.6343 7.35001 51.0121C8.16611 51.6059 8.54696 51.6869 10.5872 51.6869C12.4098 51.6869 13.0899 51.5789 13.8244 51.1471C14.3413 50.8502 15.1302 50.1484 15.5926 49.5816C16.4359 48.529 16.4359 48.502 16.4903 45.0472L16.572 41.5655C11.3489 41.5924 9.49907 41.7274 8.95501 41.9163C8.43814 42.1053 7.67645 42.4561 7.2412 42.726ZM38.3346 21.6194C40.8373 21.5924 41.3542 21.6734 42.6056 22.2672C43.5305 22.6991 44.3738 23.3738 45.8156 25.2901L46.9581 24.1026C47.611 23.4818 48.7807 22.6451 49.5424 22.2672C50.7938 21.6734 51.3651 21.5924 53.8406 21.5924C56.2889 21.5924 56.8873 21.7004 58.0571 22.2402C58.7916 22.5911 59.7981 23.2928 60.2878 23.7787C60.7774 24.2915 61.4303 25.2901 61.7839 26.0459C62.4096 27.3954 62.4096 27.4224 62.5456 55.8704H56.8329V30.0945L56.1528 28.664C55.6088 27.5843 55.2279 27.1255 54.303 26.6937C53.4053 26.2348 52.7796 26.1269 51.4739 26.2078C50.3585 26.2888 49.5696 26.5047 49.08 26.8556C48.6719 27.1525 48.0734 27.7463 47.747 28.1511C47.1757 28.9069 47.1757 29.1498 47.0941 42.1862C47.0397 52.0108 46.9309 55.5466 46.6861 55.8165C46.4412 56.0864 45.6523 56.1673 41.191 56.0054L41.055 42.6451C40.919 30.6073 40.8646 29.2038 40.4293 28.3941C40.1845 27.9352 39.5588 27.2605 39.0691 26.9096C38.3618 26.4237 37.8178 26.3158 36.1584 26.3158C34.4174 26.3158 33.9821 26.4238 33.1932 26.9906C32.6763 27.3684 32.0235 28.1511 31.7514 28.7449C31.3162 29.7436 31.2618 30.9042 31.2618 42.4291C31.2618 48.9609 31.2074 54.5209 31.1257 55.3576C31.1439 55.3756 31.162 55.3936 31.1802 55.4116C31.289 55.5196 31.2618 55.7355 31.0985 55.8974C30.9081 56.0594 29.7112 56.1134 25.6851 55.9784L28.3238 55.9244C29.8472 55.8974 30.6361 55.8165 30.8809 55.6545C30.4185 55.8165 29.1399 55.8704 25.277 55.8704V22.1323H30.9897L30.9625 24.9663L32.1323 23.8057C32.7852 23.1579 33.7917 22.4022 34.3902 22.1323C35.2063 21.7544 36.1856 21.6464 38.3346 21.6194ZM71.7948 22.1323V55.8704L65.9461 55.7355V54.8448C65.9461 54.7638 65.9461 54.413 65.9461 53.8462L65.8644 38.3266C65.8372 29.6356 65.8644 22.3752 65.9461 22.1862C66.0277 21.9433 66.8438 21.8893 71.6588 21.9703L66.0821 22.1323H71.7948ZM85.6685 21.5924C87.0287 21.5924 88.6065 21.7544 89.477 22.0243C90.2931 22.2672 91.5716 22.834 92.3061 23.2928C93.0406 23.7787 93.9927 24.5884 94.4008 25.1012C94.8088 25.614 95.4073 26.7476 95.7065 27.5843C96.1146 28.691 96.2778 29.8246 96.2778 33.7382H91.2452L91.082 31.6599C90.9732 30.3374 90.7011 29.1228 90.3203 28.3941C89.9938 27.7193 89.341 27.0175 88.7153 26.6397C87.9264 26.1808 87.3007 26.0459 85.8045 26.0459C84.2267 26.0459 83.7099 26.1538 82.8393 26.7206C82.2681 27.0985 81.5608 27.7463 81.2888 28.2051C81.0167 28.637 80.7175 29.5007 80.6359 30.0945C80.5271 30.6883 80.5815 31.6599 80.7447 32.2537C80.8807 32.8475 81.3704 33.6842 81.8056 34.1431C82.2409 34.5749 83.1386 35.2227 83.7915 35.5466C84.4443 35.8974 86.6478 36.6532 88.6609 37.247C90.8371 37.8947 92.7686 38.6235 93.3943 39.0553C93.9655 39.4872 94.7544 40.1619 95.1353 40.6208C95.5161 41.0526 96.033 41.9163 96.305 42.5101C96.5498 43.1039 96.8491 44.2645 96.9579 45.0742C97.0667 45.8839 97.0123 47.2874 96.8491 48.1781C96.6859 49.0688 96.305 50.2834 96.033 50.8772C95.7337 51.471 94.9176 52.5506 94.1832 53.2524C93.4759 53.9811 92.2245 54.8448 91.4356 55.2227C90.6739 55.5736 89.0145 56.0054 87.7632 56.1943C86.0765 56.4372 85.0428 56.4372 83.4922 56.2213C82.3769 56.0594 80.8807 55.6545 80.1462 55.3576C79.4389 55.0337 78.242 54.224 77.4803 53.4953C76.7186 52.7935 75.7665 51.6059 75.3856 50.8772C74.7599 49.6626 74.6511 49.1768 74.5151 42.915H79.6838L79.7654 45.5331C79.8198 47.5843 79.9558 48.3941 80.3638 49.0958C80.6631 49.6086 81.3704 50.3914 81.9416 50.8502C82.9754 51.6599 83.0842 51.6869 85.7773 51.6869C88.3888 51.6869 88.6337 51.6329 89.5586 50.9312C90.1026 50.5263 90.7555 49.7976 91.0004 49.3117C91.2452 48.8529 91.49 47.9082 91.5716 47.2335C91.6532 46.3158 91.5444 45.722 91.0548 44.8043C90.6467 44.0216 89.9666 43.2929 89.0689 42.6991C88.2528 42.1592 86.1582 41.3225 83.9003 40.6208C81.0439 39.7301 79.7382 39.1633 78.7588 38.4076C77.9971 37.8408 77.0722 36.8961 76.6642 36.3023C76.2561 35.7085 75.7937 34.7099 75.6305 34.0621C75.4672 33.4413 75.3312 32.1727 75.3312 31.2281C75.3312 30.3104 75.4672 29.0148 75.6305 28.3401C75.7937 27.6653 76.3649 26.4777 76.909 25.668C77.4531 24.8583 78.4596 23.8327 79.1397 23.3738C79.8198 22.942 81.0439 22.3482 81.86 22.1053C82.7577 21.8084 84.2539 21.6194 85.6685 21.5924ZM59.6621 55.9784C61.1583 55.9784 61.8383 56.0324 61.1583 56.0864C60.4782 56.1404 59.254 56.1404 58.4379 56.0864C57.6218 56.0324 58.1659 55.9784 59.6621 55.9784ZM28.1062 21.9703C29.6024 21.9703 30.2824 22.0243 29.6024 22.0783C28.9495 22.1323 27.7253 22.1323 26.882 22.0783C26.0659 22.0243 26.61 21.9703 28.1062 21.9703ZM0.685185 30.6613C0.766795 31.0931 0.766795 31.9568 0.712388 32.5506C0.630778 33.1444 0.603575 32.7665 0.603575 31.7409C0.576371 30.6883 0.630778 30.2024 0.685185 30.6613ZM56.7513 36.1943C56.7785 39.6761 56.7785 45.5061 56.7513 49.1498C56.6969 52.7665 56.6697 49.9325 56.6697 42.807C56.6697 35.6815 56.6969 32.6856 56.7513 36.1943ZM13.1443 37.085C15.103 37.085 15.9463 37.139 15.0486 37.193C14.1509 37.247 12.5731 37.247 11.5121 37.193C10.4784 37.139 11.2129 37.085 13.1443 37.085Z" fill="white"/>
</svg>
